<mxfile host="app.diagrams.net" modified="2023-03-28T00:10:39.723Z" agent="Mozilla/5.0 (Macintosh; Intel Mac OS X 10_15_7) AppleWebKit/537.36 (KHTML, like Gecko) Chrome/111.0.0.0 Safari/537.36" etag="BRZ6A2-begYtLcGP6ZLa" version="21.1.1" type="device" pages="2">
  <diagram id="YIPa2errtSvZ_nfrXcX-" name="Page-1">
    <mxGraphModel dx="2265" dy="955" grid="1" gridSize="10" guides="1" tooltips="1" connect="1" arrows="1" fold="1" page="1" pageScale="1" pageWidth="850" pageHeight="1100" background="none" math="0" shadow="0">
      <root>
        <mxCell id="0" />
        <mxCell id="1" parent="0" />
        <mxCell id="qylB5J43ioJ6EzCwsVwd-26" style="edgeStyle=orthogonalEdgeStyle;rounded=0;orthogonalLoop=1;jettySize=auto;html=1;entryX=0.5;entryY=0;entryDx=0;entryDy=0;" parent="1" source="qylB5J43ioJ6EzCwsVwd-24" target="qylB5J43ioJ6EzCwsVwd-4" edge="1">
          <mxGeometry relative="1" as="geometry" />
        </mxCell>
        <mxCell id="qylB5J43ioJ6EzCwsVwd-27" style="edgeStyle=orthogonalEdgeStyle;rounded=0;orthogonalLoop=1;jettySize=auto;html=1;entryX=0.5;entryY=0;entryDx=0;entryDy=0;" parent="1" source="qylB5J43ioJ6EzCwsVwd-24" target="qylB5J43ioJ6EzCwsVwd-2" edge="1">
          <mxGeometry relative="1" as="geometry" />
        </mxCell>
        <mxCell id="qylB5J43ioJ6EzCwsVwd-28" style="edgeStyle=orthogonalEdgeStyle;rounded=0;orthogonalLoop=1;jettySize=auto;html=1;exitX=1;exitY=0.5;exitDx=0;exitDy=0;entryX=0.5;entryY=0;entryDx=0;entryDy=0;" parent="1" source="qylB5J43ioJ6EzCwsVwd-24" target="qylB5J43ioJ6EzCwsVwd-16" edge="1">
          <mxGeometry relative="1" as="geometry" />
        </mxCell>
        <mxCell id="qylB5J43ioJ6EzCwsVwd-29" style="edgeStyle=orthogonalEdgeStyle;rounded=0;orthogonalLoop=1;jettySize=auto;html=1;exitX=1;exitY=0.5;exitDx=0;exitDy=0;entryX=0.5;entryY=0;entryDx=0;entryDy=0;" parent="1" source="qylB5J43ioJ6EzCwsVwd-24" target="qylB5J43ioJ6EzCwsVwd-18" edge="1">
          <mxGeometry relative="1" as="geometry" />
        </mxCell>
        <mxCell id="qylB5J43ioJ6EzCwsVwd-30" style="edgeStyle=orthogonalEdgeStyle;rounded=0;orthogonalLoop=1;jettySize=auto;html=1;exitX=1;exitY=0.5;exitDx=0;exitDy=0;entryX=0.5;entryY=0;entryDx=0;entryDy=0;" parent="1" source="qylB5J43ioJ6EzCwsVwd-24" target="qylB5J43ioJ6EzCwsVwd-20" edge="1">
          <mxGeometry relative="1" as="geometry" />
        </mxCell>
        <mxCell id="qylB5J43ioJ6EzCwsVwd-24" value="" style="rounded=0;whiteSpace=wrap;html=1;fillColor=#f8cecc;strokeColor=#b85450;glass=1;" parent="1" vertex="1">
          <mxGeometry x="296" y="240" width="474" height="210" as="geometry" />
        </mxCell>
        <mxCell id="qylB5J43ioJ6EzCwsVwd-20" value="" style="rounded=0;whiteSpace=wrap;html=1;fillColor=#CDE3E6;strokeColor=#0e8088;glass=1;" parent="1" vertex="1">
          <mxGeometry x="1501" y="516" width="120" height="224" as="geometry" />
        </mxCell>
        <mxCell id="qylB5J43ioJ6EzCwsVwd-18" value="" style="rounded=0;whiteSpace=wrap;html=1;fillColor=#e1d5e7;strokeColor=#9673a6;glass=1;" parent="1" vertex="1">
          <mxGeometry x="1251" y="516" width="120" height="224" as="geometry" />
        </mxCell>
        <mxCell id="qylB5J43ioJ6EzCwsVwd-16" value="" style="rounded=0;whiteSpace=wrap;html=1;fillColor=#fff2cc;strokeColor=#d6b656;glass=1;" parent="1" vertex="1">
          <mxGeometry x="771" y="516" width="370" height="364" as="geometry" />
        </mxCell>
        <mxCell id="qylB5J43ioJ6EzCwsVwd-2" value="" style="rounded=0;whiteSpace=wrap;html=1;fillColor=#ffe6cc;strokeColor=#d79b00;glass=1;" parent="1" vertex="1">
          <mxGeometry x="511" y="520" width="120" height="220" as="geometry" />
        </mxCell>
        <mxCell id="qylB5J43ioJ6EzCwsVwd-4" value="" style="rounded=0;whiteSpace=wrap;html=1;fillColor=#d5e8d4;strokeColor=#82b366;glass=1;" parent="1" vertex="1">
          <mxGeometry x="281" y="520" width="120" height="220" as="geometry" />
        </mxCell>
        <mxCell id="qylB5J43ioJ6EzCwsVwd-6" value="" style="rounded=0;whiteSpace=wrap;html=1;glass=1;fillColor=#dae8fc;strokeColor=#6c8ebf;" parent="1" vertex="1">
          <mxGeometry x="70" y="420" width="100" height="317" as="geometry" />
        </mxCell>
        <mxCell id="02lZLyMtl6aPGszSBePG-54" style="edgeStyle=orthogonalEdgeStyle;rounded=0;orthogonalLoop=1;jettySize=auto;html=1;" parent="1" source="AV6chdXFAvIHWM2sQgtt-2" target="02lZLyMtl6aPGszSBePG-11" edge="1">
          <mxGeometry relative="1" as="geometry" />
        </mxCell>
        <mxCell id="02lZLyMtl6aPGszSBePG-55" value="Extract raw data" style="edgeLabel;html=1;align=center;verticalAlign=middle;resizable=0;points=[];" parent="02lZLyMtl6aPGszSBePG-54" vertex="1" connectable="0">
          <mxGeometry x="0.127" y="4" relative="1" as="geometry">
            <mxPoint x="-4" y="-5" as="offset" />
          </mxGeometry>
        </mxCell>
        <mxCell id="AV6chdXFAvIHWM2sQgtt-2" value="Amazon S3" style="sketch=0;outlineConnect=0;fontColor=#232F3E;gradientColor=none;strokeColor=#ffffff;fillColor=#232F3E;dashed=0;verticalLabelPosition=middle;verticalAlign=bottom;align=center;html=1;whiteSpace=wrap;fontSize=10;fontStyle=1;spacing=3;shape=mxgraph.aws4.productIcon;prIcon=mxgraph.aws4.s3;fontFamily=Helvetica;" parent="1" vertex="1">
          <mxGeometry x="791" y="580" width="80" height="110" as="geometry" />
        </mxCell>
        <mxCell id="02lZLyMtl6aPGszSBePG-40" style="edgeStyle=orthogonalEdgeStyle;rounded=0;orthogonalLoop=1;jettySize=auto;html=1;" parent="1" source="02lZLyMtl6aPGszSBePG-51" target="02lZLyMtl6aPGszSBePG-44" edge="1">
          <mxGeometry relative="1" as="geometry">
            <mxPoint x="170" y="621.5" as="sourcePoint" />
            <mxPoint x="351" y="621" as="targetPoint" />
          </mxGeometry>
        </mxCell>
        <mxCell id="02lZLyMtl6aPGszSBePG-41" value="Collect data in real time" style="edgeLabel;html=1;align=center;verticalAlign=middle;resizable=0;points=[];labelBackgroundColor=default;" parent="02lZLyMtl6aPGszSBePG-40" vertex="1" connectable="0">
          <mxGeometry x="-0.3057" relative="1" as="geometry">
            <mxPoint x="23" y="-15" as="offset" />
          </mxGeometry>
        </mxCell>
        <mxCell id="02lZLyMtl6aPGszSBePG-2" value="External Source" style="text;html=1;align=center;verticalAlign=middle;resizable=0;points=[];autosize=1;strokeColor=none;fillColor=none;" parent="1" vertex="1">
          <mxGeometry x="64.7" y="670" width="110" height="30" as="geometry" />
        </mxCell>
        <mxCell id="02lZLyMtl6aPGszSBePG-20" value="" style="edgeStyle=orthogonalEdgeStyle;rounded=0;orthogonalLoop=1;jettySize=auto;html=1;" parent="1" source="02lZLyMtl6aPGszSBePG-11" target="02lZLyMtl6aPGszSBePG-15" edge="1">
          <mxGeometry relative="1" as="geometry">
            <mxPoint x="1268" y="749" as="targetPoint" />
          </mxGeometry>
        </mxCell>
        <mxCell id="02lZLyMtl6aPGszSBePG-56" value="Transform raw data" style="edgeLabel;html=1;align=center;verticalAlign=middle;resizable=0;points=[];" parent="02lZLyMtl6aPGszSBePG-20" vertex="1" connectable="0">
          <mxGeometry x="-0.2705" y="-1" relative="1" as="geometry">
            <mxPoint x="23" y="-19" as="offset" />
          </mxGeometry>
        </mxCell>
        <mxCell id="02lZLyMtl6aPGszSBePG-11" value="Amazon Glue Crawler" style="sketch=0;outlineConnect=0;fontColor=#232F3E;gradientColor=none;fillColor=#4D27AA;strokeColor=none;dashed=0;verticalLabelPosition=bottom;verticalAlign=top;align=center;html=1;fontSize=12;fontStyle=0;aspect=fixed;pointerEvents=1;shape=mxgraph.aws4.glue_crawlers;" parent="1" vertex="1">
          <mxGeometry x="793" y="779" width="78" height="78" as="geometry" />
        </mxCell>
        <mxCell id="02lZLyMtl6aPGszSBePG-57" value="Load transformed data in data warehouse" style="edgeStyle=orthogonalEdgeStyle;rounded=0;orthogonalLoop=1;jettySize=auto;html=1;" parent="1" source="02lZLyMtl6aPGszSBePG-15" target="02lZLyMtl6aPGszSBePG-23" edge="1">
          <mxGeometry relative="1" as="geometry" />
        </mxCell>
        <mxCell id="02lZLyMtl6aPGszSBePG-15" value="AWS Glue" style="sketch=0;outlineConnect=0;fontColor=#232F3E;gradientColor=none;strokeColor=#ffffff;fillColor=#232F3E;dashed=0;verticalLabelPosition=middle;verticalAlign=bottom;align=center;html=1;whiteSpace=wrap;fontSize=10;fontStyle=1;spacing=3;shape=mxgraph.aws4.productIcon;prIcon=mxgraph.aws4.glue;" parent="1" vertex="1">
          <mxGeometry x="1041" y="768" width="80" height="100" as="geometry" />
        </mxCell>
        <mxCell id="02lZLyMtl6aPGszSBePG-60" style="edgeStyle=orthogonalEdgeStyle;rounded=0;orthogonalLoop=1;jettySize=auto;html=1;" parent="1" source="02lZLyMtl6aPGszSBePG-17" target="02lZLyMtl6aPGszSBePG-21" edge="1">
          <mxGeometry relative="1" as="geometry" />
        </mxCell>
        <mxCell id="02lZLyMtl6aPGszSBePG-61" value="Vizualized transformed data" style="edgeLabel;html=1;align=center;verticalAlign=middle;resizable=0;points=[];" parent="02lZLyMtl6aPGszSBePG-60" vertex="1" connectable="0">
          <mxGeometry x="-0.1583" y="3" relative="1" as="geometry">
            <mxPoint x="8" y="-12" as="offset" />
          </mxGeometry>
        </mxCell>
        <mxCell id="02lZLyMtl6aPGszSBePG-17" value="Amazon Athena" style="sketch=0;outlineConnect=0;fontColor=#232F3E;gradientColor=none;strokeColor=#ffffff;fillColor=#232F3E;dashed=0;verticalLabelPosition=middle;verticalAlign=bottom;align=center;html=1;whiteSpace=wrap;fontSize=10;fontStyle=1;spacing=3;shape=mxgraph.aws4.productIcon;prIcon=mxgraph.aws4.athena;" parent="1" vertex="1">
          <mxGeometry x="1271" y="580" width="80" height="110" as="geometry" />
        </mxCell>
        <mxCell id="02lZLyMtl6aPGszSBePG-21" value="Amazon QuickSight" style="sketch=0;outlineConnect=0;fontColor=#232F3E;gradientColor=none;strokeColor=#ffffff;fillColor=#232F3E;dashed=0;verticalLabelPosition=middle;verticalAlign=bottom;align=center;html=1;whiteSpace=wrap;fontSize=10;fontStyle=1;spacing=3;shape=mxgraph.aws4.productIcon;prIcon=mxgraph.aws4.quicksight;" parent="1" vertex="1">
          <mxGeometry x="1521" y="580" width="80" height="110" as="geometry" />
        </mxCell>
        <mxCell id="02lZLyMtl6aPGszSBePG-58" style="edgeStyle=orthogonalEdgeStyle;rounded=0;orthogonalLoop=1;jettySize=auto;html=1;" parent="1" source="02lZLyMtl6aPGszSBePG-23" target="02lZLyMtl6aPGszSBePG-17" edge="1">
          <mxGeometry relative="1" as="geometry" />
        </mxCell>
        <mxCell id="02lZLyMtl6aPGszSBePG-59" value="Analyze transformed data" style="edgeLabel;html=1;align=center;verticalAlign=middle;resizable=0;points=[];" parent="02lZLyMtl6aPGszSBePG-58" vertex="1" connectable="0">
          <mxGeometry x="-0.23" y="5" relative="1" as="geometry">
            <mxPoint x="15" y="-10" as="offset" />
          </mxGeometry>
        </mxCell>
        <mxCell id="02lZLyMtl6aPGszSBePG-23" value="Amazon Redshift" style="sketch=0;outlineConnect=0;fontColor=#232F3E;gradientColor=none;strokeColor=#ffffff;fillColor=#232F3E;dashed=0;verticalLabelPosition=middle;verticalAlign=bottom;align=center;html=1;whiteSpace=wrap;fontSize=10;fontStyle=1;spacing=3;shape=mxgraph.aws4.productIcon;prIcon=mxgraph.aws4.redshift;" parent="1" vertex="1">
          <mxGeometry x="1041" y="580" width="80" height="110" as="geometry" />
        </mxCell>
        <mxCell id="02lZLyMtl6aPGszSBePG-27" value="AWS&#xa;CloudTrail" style="sketch=0;outlineConnect=0;fontColor=#232F3E;gradientColor=none;strokeColor=#ffffff;fillColor=#232F3E;dashed=0;verticalLabelPosition=middle;verticalAlign=bottom;align=center;html=1;whiteSpace=wrap;fontSize=10;fontStyle=1;spacing=3;shape=mxgraph.aws4.productIcon;prIcon=mxgraph.aws4.cloudtrail;" parent="1" vertex="1">
          <mxGeometry x="416" y="300" width="80" height="110" as="geometry" />
        </mxCell>
        <mxCell id="02lZLyMtl6aPGszSBePG-28" value="" style="outlineConnect=0;dashed=0;verticalLabelPosition=bottom;verticalAlign=top;align=center;html=1;shape=mxgraph.aws3.iam;fillColor=#759C3E;gradientColor=none;" parent="1" vertex="1">
          <mxGeometry x="321" y="300" width="40" height="81" as="geometry" />
        </mxCell>
        <mxCell id="02lZLyMtl6aPGszSBePG-47" style="edgeStyle=orthogonalEdgeStyle;rounded=0;orthogonalLoop=1;jettySize=auto;html=1;" parent="1" source="02lZLyMtl6aPGszSBePG-44" target="02lZLyMtl6aPGszSBePG-46" edge="1">
          <mxGeometry relative="1" as="geometry" />
        </mxCell>
        <mxCell id="02lZLyMtl6aPGszSBePG-48" value="Process data in data stream" style="edgeLabel;html=1;align=center;verticalAlign=middle;resizable=0;points=[];labelBackgroundColor=default;" parent="02lZLyMtl6aPGszSBePG-47" vertex="1" connectable="0">
          <mxGeometry x="-0.2824" y="4" relative="1" as="geometry">
            <mxPoint x="21" y="-11" as="offset" />
          </mxGeometry>
        </mxCell>
        <mxCell id="02lZLyMtl6aPGszSBePG-44" value="Amazon Kinesis" style="sketch=0;outlineConnect=0;fontColor=#232F3E;gradientColor=none;strokeColor=#ffffff;fillColor=#232F3E;dashed=0;verticalLabelPosition=middle;verticalAlign=bottom;align=center;html=1;whiteSpace=wrap;fontSize=10;fontStyle=1;spacing=3;shape=mxgraph.aws4.productIcon;prIcon=mxgraph.aws4.kinesis;" parent="1" vertex="1">
          <mxGeometry x="301" y="580" width="80" height="110" as="geometry" />
        </mxCell>
        <mxCell id="qylB5J43ioJ6EzCwsVwd-13" style="edgeStyle=orthogonalEdgeStyle;rounded=0;orthogonalLoop=1;jettySize=auto;html=1;" parent="1" source="02lZLyMtl6aPGszSBePG-46" target="AV6chdXFAvIHWM2sQgtt-2" edge="1">
          <mxGeometry relative="1" as="geometry" />
        </mxCell>
        <mxCell id="02lZLyMtl6aPGszSBePG-46" value="AWS Lambda" style="sketch=0;outlineConnect=0;fontColor=#232F3E;gradientColor=none;strokeColor=#ffffff;fillColor=#232F3E;dashed=0;verticalLabelPosition=middle;verticalAlign=bottom;align=center;html=1;whiteSpace=wrap;fontSize=10;fontStyle=1;spacing=3;shape=mxgraph.aws4.productIcon;prIcon=mxgraph.aws4.lambda;" parent="1" vertex="1">
          <mxGeometry x="531" y="580" width="80" height="110" as="geometry" />
        </mxCell>
        <mxCell id="02lZLyMtl6aPGszSBePG-49" value="&lt;font style=&quot;font-size: 8px;&quot;&gt;According to AWS, AWS Lambda integrates natively with Amazon Kinesis as a consumer to process data ingested through a data stream.&lt;/font&gt;" style="text;html=1;align=center;verticalAlign=middle;resizable=0;points=[];autosize=1;fillColor=#f5f5f5;fontColor=#333333;strokeColor=#666666;" parent="1" vertex="1">
          <mxGeometry x="201" y="755" width="510" height="30" as="geometry" />
        </mxCell>
        <mxCell id="02lZLyMtl6aPGszSBePG-51" value="" style="shadow=0;dashed=0;html=1;strokeColor=none;fillColor=#4495D1;labelPosition=center;verticalLabelPosition=bottom;verticalAlign=top;align=center;outlineConnect=0;shape=mxgraph.veeam.globe;" parent="1" vertex="1">
          <mxGeometry x="81" y="595" width="77.4" height="80" as="geometry" />
        </mxCell>
        <mxCell id="02lZLyMtl6aPGszSBePG-62" value="Amazon CloudWatch" style="sketch=0;outlineConnect=0;fontColor=#232F3E;gradientColor=none;strokeColor=#ffffff;fillColor=#232F3E;dashed=0;verticalLabelPosition=middle;verticalAlign=bottom;align=center;html=1;whiteSpace=wrap;fontSize=10;fontStyle=1;spacing=3;shape=mxgraph.aws4.productIcon;prIcon=mxgraph.aws4.cloudwatch;" parent="1" vertex="1">
          <mxGeometry x="531" y="300" width="80" height="110" as="geometry" />
        </mxCell>
        <mxCell id="02lZLyMtl6aPGszSBePG-63" value="" style="sketch=0;points=[[0,0,0],[0.25,0,0],[0.5,0,0],[0.75,0,0],[1,0,0],[0,1,0],[0.25,1,0],[0.5,1,0],[0.75,1,0],[1,1,0],[0,0.25,0],[0,0.5,0],[0,0.75,0],[1,0.25,0],[1,0.5,0],[1,0.75,0]];outlineConnect=0;fontColor=#232F3E;gradientColor=#FF4F8B;gradientDirection=north;fillColor=#BC1356;strokeColor=#ffffff;dashed=0;verticalLabelPosition=bottom;verticalAlign=top;align=center;html=1;fontSize=12;fontStyle=0;aspect=fixed;shape=mxgraph.aws4.resourceIcon;resIcon=mxgraph.aws4.sns;" parent="1" vertex="1">
          <mxGeometry x="651" y="303" width="78" height="78" as="geometry" />
        </mxCell>
        <mxCell id="02lZLyMtl6aPGszSBePG-64" value="&lt;font style=&quot;font-size: 8px;&quot;&gt;According to CloudZero, AWS Glue simplifies the operation of discovering, preparing, and combining data for analytics (ETL: Extract, Transform, and Load).&lt;/font&gt;" style="text;html=1;align=center;verticalAlign=middle;resizable=0;points=[];autosize=1;fillColor=#f5f5f5;fontColor=#333333;strokeColor=#666666;" parent="1" vertex="1">
          <mxGeometry x="671" y="900" width="570" height="30" as="geometry" />
        </mxCell>
        <mxCell id="qylB5J43ioJ6EzCwsVwd-7" value="&lt;b&gt;Data Source&lt;/b&gt;" style="text;html=1;strokeColor=none;fillColor=none;align=center;verticalAlign=middle;whiteSpace=wrap;rounded=0;" parent="1" vertex="1">
          <mxGeometry x="89.7" y="440" width="60" height="30" as="geometry" />
        </mxCell>
        <mxCell id="qylB5J43ioJ6EzCwsVwd-9" value="&lt;b&gt;Data Streamer&lt;/b&gt;" style="text;html=1;strokeColor=none;fillColor=none;align=center;verticalAlign=middle;whiteSpace=wrap;rounded=0;" parent="1" vertex="1">
          <mxGeometry x="311" y="532" width="60" height="30" as="geometry" />
        </mxCell>
        <mxCell id="qylB5J43ioJ6EzCwsVwd-10" value="&lt;b&gt;Data Aggregator&lt;/b&gt;" style="text;html=1;strokeColor=none;fillColor=none;align=center;verticalAlign=middle;whiteSpace=wrap;rounded=0;" parent="1" vertex="1">
          <mxGeometry x="541" y="531" width="60" height="30" as="geometry" />
        </mxCell>
        <mxCell id="qylB5J43ioJ6EzCwsVwd-15" value="Load raw data in landing zone" style="edgeLabel;html=1;align=center;verticalAlign=middle;resizable=0;points=[];labelBackgroundColor=default;" parent="1" vertex="1" connectable="0">
          <mxGeometry x="710.9976470588236" y="620" as="geometry">
            <mxPoint x="-3" y="-2" as="offset" />
          </mxGeometry>
        </mxCell>
        <mxCell id="qylB5J43ioJ6EzCwsVwd-17" value="&lt;b&gt;Data&amp;nbsp;Governance&lt;/b&gt;" style="text;html=1;strokeColor=none;fillColor=none;align=center;verticalAlign=middle;whiteSpace=wrap;rounded=0;" parent="1" vertex="1">
          <mxGeometry x="926" y="533" width="60" height="30" as="geometry" />
        </mxCell>
        <mxCell id="qylB5J43ioJ6EzCwsVwd-19" value="&lt;b&gt;Data Analysis&lt;/b&gt;" style="text;html=1;strokeColor=none;fillColor=none;align=center;verticalAlign=middle;whiteSpace=wrap;rounded=0;" parent="1" vertex="1">
          <mxGeometry x="1281" y="531" width="60" height="30" as="geometry" />
        </mxCell>
        <mxCell id="qylB5J43ioJ6EzCwsVwd-21" value="&lt;b&gt;Data Visualization&lt;/b&gt;" style="text;html=1;strokeColor=none;fillColor=none;align=center;verticalAlign=middle;whiteSpace=wrap;rounded=0;" parent="1" vertex="1">
          <mxGeometry x="1531" y="531" width="60" height="30" as="geometry" />
        </mxCell>
        <mxCell id="qylB5J43ioJ6EzCwsVwd-25" value="&lt;b&gt;Cloud Security&lt;/b&gt;" style="text;html=1;strokeColor=none;fillColor=none;align=center;verticalAlign=middle;whiteSpace=wrap;rounded=0;" parent="1" vertex="1">
          <mxGeometry x="503" y="250" width="60" height="30" as="geometry" />
        </mxCell>
        <mxCell id="qylB5J43ioJ6EzCwsVwd-31" value="IAM" style="text;html=1;strokeColor=none;fillColor=none;align=center;verticalAlign=middle;whiteSpace=wrap;rounded=0;" parent="1" vertex="1">
          <mxGeometry x="311" y="390" width="60" height="30" as="geometry" />
        </mxCell>
        <mxCell id="qylB5J43ioJ6EzCwsVwd-32" value="Amazon SNS" style="text;html=1;strokeColor=none;fillColor=none;align=center;verticalAlign=middle;whiteSpace=wrap;rounded=0;" parent="1" vertex="1">
          <mxGeometry x="660" y="390" width="60" height="30" as="geometry" />
        </mxCell>
        <mxCell id="qylB5J43ioJ6EzCwsVwd-33" value="&lt;h1&gt;&lt;font style=&quot;font-size: 40px;&quot;&gt;Data Lake Design&lt;/font&gt;&lt;/h1&gt;" style="text;html=1;strokeColor=none;fillColor=none;spacing=5;spacingTop=-20;whiteSpace=wrap;overflow=hidden;rounded=0;align=center;" parent="1" vertex="1">
          <mxGeometry x="1157" y="150" width="444" height="120" as="geometry" />
        </mxCell>
        <mxCell id="M2bKCPdlgEuILwGiyvzk-2" style="edgeStyle=orthogonalEdgeStyle;rounded=0;orthogonalLoop=1;jettySize=auto;html=1;" edge="1" parent="1" source="M2bKCPdlgEuILwGiyvzk-1" target="qylB5J43ioJ6EzCwsVwd-20">
          <mxGeometry relative="1" as="geometry" />
        </mxCell>
        <mxCell id="M2bKCPdlgEuILwGiyvzk-1" value="Consumer" style="sketch=0;outlineConnect=0;fontColor=#232F3E;gradientColor=none;strokeColor=#232F3E;fillColor=#ffffff;dashed=0;verticalLabelPosition=bottom;verticalAlign=top;align=center;html=1;fontSize=12;fontStyle=0;aspect=fixed;shape=mxgraph.aws4.resourceIcon;resIcon=mxgraph.aws4.user;" vertex="1" parent="1">
          <mxGeometry x="1513" y="834" width="96" height="96" as="geometry" />
        </mxCell>
        <mxCell id="M2bKCPdlgEuILwGiyvzk-4" style="edgeStyle=orthogonalEdgeStyle;rounded=0;orthogonalLoop=1;jettySize=auto;html=1;exitX=0.5;exitY=1;exitDx=0;exitDy=0;exitPerimeter=0;entryX=0.452;entryY=0.006;entryDx=0;entryDy=0;entryPerimeter=0;" edge="1" parent="1" source="M2bKCPdlgEuILwGiyvzk-3" target="qylB5J43ioJ6EzCwsVwd-24">
          <mxGeometry relative="1" as="geometry" />
        </mxCell>
        <mxCell id="M2bKCPdlgEuILwGiyvzk-3" value="Employees" style="sketch=0;pointerEvents=1;shadow=0;dashed=0;html=1;strokeColor=none;labelPosition=center;verticalLabelPosition=bottom;verticalAlign=top;align=center;fillColor=#505050;shape=mxgraph.mscae.intune.user_group" vertex="1" parent="1">
          <mxGeometry x="460" y="50" width="100" height="80" as="geometry" />
        </mxCell>
        <mxCell id="M2bKCPdlgEuILwGiyvzk-7" style="edgeStyle=orthogonalEdgeStyle;rounded=0;orthogonalLoop=1;jettySize=auto;html=1;" edge="1" parent="1" target="AV6chdXFAvIHWM2sQgtt-2">
          <mxGeometry relative="1" as="geometry">
            <mxPoint x="159" y="529" as="sourcePoint" />
          </mxGeometry>
        </mxCell>
        <mxCell id="M2bKCPdlgEuILwGiyvzk-8" value=".CSV file" style="sketch=0;pointerEvents=1;shadow=0;dashed=0;html=1;strokeColor=none;fillColor=#505050;labelPosition=center;verticalLabelPosition=bottom;verticalAlign=top;outlineConnect=0;align=center;shape=mxgraph.office.users.csv_file;" vertex="1" parent="1">
          <mxGeometry x="84.5" y="499" width="71" height="51" as="geometry" />
        </mxCell>
      </root>
    </mxGraphModel>
  </diagram>
  <diagram id="6f7JOciFy3MY2vURaIDj" name="Page-2">
    <mxGraphModel dx="794" dy="491" grid="1" gridSize="10" guides="1" tooltips="1" connect="1" arrows="1" fold="1" page="1" pageScale="1" pageWidth="3300" pageHeight="4681" math="0" shadow="0">
      <root>
        <mxCell id="0" />
        <mxCell id="1" parent="0" />
      </root>
    </mxGraphModel>
  </diagram>
</mxfile>
